# xmcd
#
# Track frame offsets: 
#        150
#        3854
#        29049
#        53691
#        81540
#        105670
#        128099
#        147451
#        173268
#        195317
#        219129
#        242884
#        269326
#        291473
#        309203
#        325970
#
# Disc length: 4626 seconds
#
# Revision: 0
# Processed by: cddbd v1.5.2PL0 Copyright (c) Steve Scherf et al.
# Submitted via: ExactAudioCopy v0.95b4
#
DISCID=de121010
DTITLE=Lauryn Hill - The Miseducation Of Lauryn Hill
DYEAR=1998
DGENRE=Hip-Hop
TTITLE0=Intro
TTITLE1=Lost Ones
TTITLE2=Ex-Factor
TTITLE3=To Zion
TTITLE4=Doo Wop (That Thing)
TTITLE5=Superstar
TTITLE6=Final Hour
TTITLE7=When It Hurts So Bad
TTITLE8=I Used To Love Him
TTITLE9=Forgive Them Father
TTITLE10=Every Ghetto, Every City
TTITLE11=Nothing Even Matters
TTITLE12=Everything Is Everything
TTITLE13=The Miseducation Of Lauryn Hill
TTITLE14=Can't Take My Eyes Off Of You
TTITLE15=Tell Him (Live)
EXTD=
EXTT0=
EXTT1=
EXTT2=
EXTT3=
EXTT4=
EXTT5=
EXTT6=
EXTT7=
EXTT8=
EXTT9=
EXTT10=
EXTT11=
EXTT12=
EXTT13=
EXTT14=
EXTT15=
PLAYORDER=
